<svg width="648" height="255" viewBox="0 0 648 255" fill="none" xmlns="http://www.w3.org/2000/svg">
<rect x="89" y="208" width="207" height="47" fill="#7080BE"/>
<rect x="227" y="208" width="81" height="25" fill="#7080BE"/>
<rect x="101" y="208" width="207" height="47" rx="9" fill="#7080BE"/>
<rect x="7" width="76" height="55" fill="#8DACE2"/>
<rect y="15" width="76" height="40" fill="#8DACE2"/>
<rect width="76" height="55" rx="9" fill="#8DACE2"/>
<rect x="89" width="207" height="203" fill="#B7D0F6"/>
<rect x="101" y="29" width="207" height="174" fill="#B7D0F6"/>
<rect x="101" width="207" height="203" rx="9" fill="#B7D0F6"/>
<rect x="7" y="61" width="76" height="194" fill="#718191"/>
<rect y="61" width="76" height="147" fill="#718191"/>
<rect y="61" width="76" height="194" rx="9" fill="#718191"/>
<path d="M410.098 60.9122C410.098 67.8905 408.901 74.1045 406.509 79.5542C404.183 84.9375 400.594 89.1909 395.742 92.3146C390.891 95.4382 384.71 97 377.2 97H353.573V31.0052C353.573 30.9388 353.44 30.4071 353.175 29.4102C352.975 28.4133 352.776 27.3831 352.576 26.3198C352.377 25.2564 352.244 24.6251 352.178 24.4257H370.82C378.928 24.4257 385.906 25.6552 391.755 28.1142C397.603 30.5068 402.122 34.3947 405.312 39.7779C408.503 45.0947 410.098 52.1395 410.098 60.9122ZM400.428 60.7128C400.428 50.2122 397.836 42.7022 392.652 38.1829C387.534 33.5972 380.024 31.3043 370.122 31.3043H362.845V90.1214H376.004C382.051 90.1214 386.837 88.7922 390.359 86.1338C393.948 83.4754 396.507 79.9198 398.035 75.467C399.63 71.0141 400.428 66.0961 400.428 60.7128ZM441.123 98.296C436.271 98.296 432.184 97.0997 428.861 94.7071C425.605 92.2481 423.146 89.058 421.484 85.1369C419.889 81.2157 419.091 77.0288 419.091 72.5759C419.091 68.1231 419.955 63.9029 421.683 59.9153C423.478 55.8613 426.07 52.5715 429.459 50.046C432.849 47.5205 436.936 46.2578 441.721 46.2578C446.639 46.2578 450.726 47.4541 453.983 49.8466C457.306 52.2392 459.765 55.396 461.36 59.3172C463.022 63.2383 463.852 67.4585 463.852 71.9778C463.852 76.4971 462.988 80.7838 461.26 84.8378C459.532 88.8254 456.974 92.082 453.584 94.6074C450.195 97.0665 446.041 98.296 441.123 98.296ZM441.223 92.0155C443.815 92.0155 445.975 91.4174 447.703 90.2211C449.497 88.9583 450.926 87.3301 451.989 85.3363C453.119 83.3425 453.917 81.2157 454.382 78.9561C454.847 76.63 455.08 74.4036 455.08 72.2769C455.08 70.0837 454.847 67.8573 454.382 65.5976C453.983 63.2715 453.285 61.1448 452.288 59.2175C451.291 57.2237 449.896 55.6286 448.101 54.4324C446.373 53.1696 444.213 52.5383 441.621 52.5383C439.029 52.5383 436.836 53.1696 435.042 54.4324C433.314 55.6286 431.918 57.2237 430.855 59.2175C429.792 61.2113 429.027 63.3712 428.562 65.6973C428.097 67.957 427.864 70.1502 427.864 72.2769C427.864 74.3371 428.097 76.5303 428.562 78.8564C429.027 81.1161 429.758 83.2428 430.755 85.2366C431.819 87.2304 433.214 88.8586 434.942 90.1214C436.67 91.3841 438.764 92.0155 441.223 92.0155ZM481.425 46.5569C482.621 49.4811 483.386 52.5715 483.718 55.828C485.446 53.1032 487.772 50.8768 490.696 49.1488C493.62 47.4208 496.711 46.5569 499.967 46.5569L497.974 55.3296C494.783 55.3296 492.059 56.1603 489.799 57.8218C487.606 59.4833 485.645 61.5768 483.917 64.1023V97H475.643V61.1116C475.643 59.1843 475.377 56.8914 474.845 54.233C474.38 51.5081 473.583 49.3149 472.453 47.6534L481.425 46.5569ZM516.18 46.7562C517.111 49.0159 517.742 51.3087 518.074 53.6348C519.869 51.9069 522.062 50.2454 524.654 48.6503C527.246 47.0553 529.871 46.2578 532.529 46.2578C535.719 46.2578 538.444 46.9224 540.704 48.2516C542.964 49.5143 544.791 51.6078 546.187 54.5321C548.181 52.5383 550.54 50.6774 553.265 48.9494C555.99 47.155 558.781 46.2578 561.639 46.2578C567.155 46.2578 571.043 47.9193 573.303 51.2423C575.629 54.5653 576.792 58.7855 576.792 63.9029V97H568.517V66.5945C568.517 64.6007 568.351 62.6069 568.019 60.6131C567.753 58.6193 567.022 56.9578 565.826 55.6286C564.696 54.2994 562.835 53.6348 560.243 53.6348C557.917 53.6348 555.624 54.3991 553.365 55.9277C551.105 57.3898 549.211 58.8852 547.682 60.4138V97H539.408V66.5945C539.408 64.5343 539.242 62.5405 538.91 60.6131C538.644 58.6193 537.913 56.9578 536.716 55.6286C535.587 54.2994 533.726 53.6348 531.134 53.6348C529.672 53.6348 528.176 54.0004 526.648 54.7314C525.119 55.396 523.657 56.26 522.261 57.3234C520.866 58.3203 519.636 59.2839 518.573 60.2144V97H510.298V61.0119C510.298 58.9516 510.033 56.692 509.501 54.233C509.036 51.7075 508.238 49.5476 507.108 47.7531L516.18 46.7562ZM372.913 144.429C376.236 144.429 379.46 144.894 382.583 145.824C385.773 146.755 388.797 148.084 391.655 149.812L387.069 156.491C385.009 154.963 382.749 153.766 380.29 152.902C377.898 151.972 375.405 151.507 372.814 151.507C369.291 151.507 366.3 152.404 363.841 154.198C361.382 155.926 360.153 158.718 360.153 162.572C360.153 164.699 360.718 166.527 361.848 168.055C363.044 169.517 364.606 170.813 366.533 171.943C368.46 173.073 370.554 174.17 372.814 175.233C375.14 176.296 377.499 177.459 379.892 178.722C382.351 179.985 384.577 181.48 386.571 183.208C388.631 184.87 390.259 186.93 391.456 189.389C392.718 191.782 393.35 194.739 393.35 198.261C393.35 203.046 392.187 207.001 389.861 210.124C387.534 213.182 384.477 215.475 380.689 217.003C376.901 218.465 372.814 219.196 368.427 219.196C364.838 219.196 361.349 218.731 357.96 217.801C354.637 216.804 351.38 215.475 348.19 213.813L351.779 205.638C353.972 207.499 356.631 209.028 359.754 210.224C362.878 211.42 365.868 212.019 368.726 212.019C370.919 212.019 373.146 211.62 375.405 210.822C377.665 209.958 379.559 208.596 381.088 206.735C382.616 204.874 383.381 202.482 383.381 199.557C383.381 196.633 382.683 194.241 381.287 192.38C379.892 190.452 378.064 188.857 375.804 187.595C373.545 186.265 371.152 185.003 368.627 183.806C366.433 182.743 364.24 181.646 362.047 180.517C359.854 179.387 357.86 178.058 356.066 176.529C354.271 175 352.842 173.173 351.779 171.046C350.716 168.919 350.184 166.361 350.184 163.37C350.184 159.183 351.28 155.694 353.474 152.902C355.733 150.111 358.591 148.018 362.047 146.622C365.569 145.16 369.191 144.429 372.913 144.429ZM423.319 167.258C429.3 167.258 433.82 169.052 436.877 172.641C440 176.163 441.562 180.816 441.562 186.598C441.562 187.528 441.496 188.492 441.363 189.489C441.296 190.419 441.197 191.416 441.064 192.479H409.562C409.562 198.793 410.957 203.678 413.749 207.134C416.54 210.59 420.262 212.318 424.914 212.318C428.702 212.318 432.889 211.121 437.475 208.729L440.565 213.713C438.239 215.574 435.614 216.97 432.69 217.9C429.766 218.831 426.808 219.296 423.817 219.296C418.634 219.296 414.314 218.066 410.858 215.607C407.468 213.148 404.943 209.958 403.281 206.037C401.62 202.116 400.789 198.029 400.789 193.775C400.789 190.452 401.254 187.229 402.185 184.105C403.115 180.982 404.511 178.157 406.372 175.632C408.299 173.04 410.658 171.013 413.45 169.551C416.241 168.022 419.531 167.258 423.319 167.258ZM422.521 173.538C420.262 173.538 418.268 174.17 416.54 175.432C414.812 176.695 413.416 178.323 412.353 180.317C411.29 182.245 410.559 184.238 410.16 186.299H432.889C433.022 182.178 432.158 179.021 430.297 176.828C428.436 174.635 425.844 173.538 422.521 173.538ZM459.52 167.557C460.717 170.481 461.481 173.571 461.813 176.828C463.541 174.103 465.867 171.877 468.792 170.149C471.716 168.421 474.806 167.557 478.063 167.557L476.069 176.33C472.879 176.33 470.154 177.16 467.894 178.822C465.701 180.483 463.741 182.577 462.013 185.102V218H453.738V182.112C453.738 180.184 453.473 177.891 452.941 175.233C452.476 172.508 451.678 170.315 450.548 168.653L459.52 167.557ZM492.919 168.454L503.685 199.159C504.151 200.421 504.583 201.651 504.981 202.847C505.38 204.043 505.779 205.472 506.178 207.134C506.576 205.539 506.942 204.176 507.274 203.046C507.673 201.85 508.072 200.687 508.471 199.557L519.337 168.454H527.113L509.368 218.598H501.791L484.146 168.454H492.919ZM546.759 151.806C546.759 153.467 546.161 154.896 544.965 156.093C543.835 157.289 542.406 157.887 540.678 157.887C539.017 157.887 537.588 157.289 536.392 156.093C535.262 154.896 534.697 153.467 534.697 151.806C534.697 150.144 535.262 148.715 536.392 147.519C537.588 146.323 539.017 145.725 540.678 145.725C542.34 145.725 543.769 146.323 544.965 147.519C546.161 148.715 546.759 150.144 546.759 151.806ZM544.965 168.454V218H536.691V174.336L535.494 168.454H544.965ZM580.652 167.258C583.177 167.258 585.703 167.69 588.228 168.554C590.82 169.351 593.345 170.614 595.804 172.342L591.318 178.124C589.458 176.595 587.63 175.499 585.835 174.834C584.041 174.103 582.313 173.738 580.652 173.738C577.993 173.738 575.601 174.535 573.474 176.13C571.347 177.725 569.652 179.985 568.39 182.909C567.193 185.833 566.595 189.256 566.595 193.177C566.595 199.424 567.991 204.21 570.782 207.533C573.64 210.856 577.229 212.517 581.549 212.517C583.476 212.517 585.337 212.218 587.131 211.62C588.992 211.022 590.92 210.158 592.913 209.028L595.605 214.311C592.947 215.973 590.388 217.202 587.929 218C585.47 218.864 582.712 219.296 579.655 219.296C575.401 219.296 571.613 218.233 568.29 216.106C565.033 213.913 562.442 210.822 560.514 206.835C558.653 202.847 557.723 198.162 557.723 192.778C557.723 187.595 558.753 183.108 560.813 179.32C562.94 175.466 565.731 172.508 569.187 170.448C572.71 168.321 576.531 167.258 580.652 167.258ZM625.133 167.258C631.114 167.258 635.633 169.052 638.691 172.641C641.814 176.163 643.376 180.816 643.376 186.598C643.376 187.528 643.31 188.492 643.177 189.489C643.11 190.419 643.011 191.416 642.878 192.479H611.376C611.376 198.793 612.771 203.678 615.563 207.134C618.354 210.59 622.076 212.318 626.728 212.318C630.516 212.318 634.703 211.121 639.289 208.729L642.379 213.713C640.053 215.574 637.428 216.97 634.504 217.9C631.579 218.831 628.622 219.296 625.631 219.296C620.447 219.296 616.127 218.066 612.672 215.607C609.282 213.148 606.757 209.958 605.095 206.037C603.434 202.116 602.603 198.029 602.603 193.775C602.603 190.452 603.068 187.229 603.999 184.105C604.929 180.982 606.325 178.157 608.185 175.632C610.113 173.04 612.472 171.013 615.263 169.551C618.055 168.022 621.345 167.258 625.133 167.258ZM624.335 173.538C622.076 173.538 620.082 174.17 618.354 175.432C616.626 176.695 615.23 178.323 614.167 180.317C613.104 182.245 612.372 184.238 611.974 186.299H634.703C634.836 182.178 633.972 179.021 632.111 176.828C630.25 174.635 627.658 173.538 624.335 173.538Z" fill="#F6F8EB"/>
</svg>
