<svg width="720" height="216" viewBox="0 0 720 216" fill="none" xmlns="http://www.w3.org/2000/svg">
<rect y="8.27576" width="99.3103" height="99.3103" fill="#5271FF"/>
<rect x="107.586" y="8.27576" width="99.3103" height="99.3103" fill="#748EFF"/>
<rect x="107.586" y="115.862" width="99.3103" height="99.3103" fill="#B9C5FF"/>
<rect y="115.862" width="99.3103" height="99.3103" fill="#97A9FF"/>
<path d="M246.829 93C246.164 93 245.599 92.8006 245.134 92.4018C244.735 91.9366 244.536 91.3717 244.536 90.7071V25.608C244.536 24.8769 244.735 24.312 245.134 23.9132C245.599 23.448 246.164 23.2154 246.829 23.2154H269.459C279.495 23.2154 286.739 25.4751 291.192 29.9945C295.645 34.4474 297.971 41.1932 298.17 50.232C298.237 52.1594 298.27 54.7514 298.27 58.008C298.27 61.2646 298.237 63.8898 298.17 65.8837C297.971 72.1975 296.908 77.3483 294.98 81.336C293.119 85.2572 290.162 88.1815 286.108 90.1089C282.054 92.0363 276.67 93 269.958 93H246.829ZM269.459 84.5262C274.045 84.5262 277.667 83.8948 280.326 82.632C283.05 81.3692 285.011 79.3754 286.207 76.6505C287.47 73.8591 288.168 70.1372 288.301 65.4849C288.434 61.4972 288.5 59.0049 288.5 58.008C288.5 56.9446 288.434 54.4855 288.301 50.6308C288.168 44.0511 286.606 39.2658 283.615 36.2751C280.625 33.2178 275.74 31.6892 268.961 31.6892H254.306V84.5262H269.459ZM333.208 93.9969C325.897 93.9969 320.214 91.9366 316.16 87.816C312.173 83.6954 310.046 78.2123 309.78 71.3668L309.68 67.08L309.78 62.7932C310.046 56.0142 312.206 50.5643 316.26 46.4437C320.314 42.2566 325.963 40.1631 333.208 40.1631C340.452 40.1631 346.101 42.2566 350.155 46.4437C354.21 50.5643 356.37 56.0142 356.635 62.7932C356.702 63.5243 356.735 64.9532 356.735 67.08C356.735 69.2068 356.702 70.6357 356.635 71.3668C356.37 78.2123 354.21 83.6954 350.155 87.816C346.168 91.9366 340.518 93.9969 333.208 93.9969ZM333.208 86.3206C337.395 86.3206 340.685 84.9914 343.077 82.3329C345.536 79.6745 346.866 75.8529 347.065 70.8683C347.131 70.2037 347.165 68.9409 347.165 67.08C347.165 65.2191 347.131 63.9563 347.065 63.2917C346.866 58.3071 345.536 54.4855 343.077 51.8271C340.685 49.1686 337.395 47.8394 333.208 47.8394C329.021 47.8394 325.698 49.1686 323.238 51.8271C320.779 54.4855 319.483 58.3071 319.35 63.2917L319.251 67.08L319.35 70.8683C319.483 75.8529 320.779 79.6745 323.238 82.3329C325.698 84.9914 329.021 86.3206 333.208 86.3206ZM371.511 93C370.847 93 370.282 92.8006 369.817 92.4018C369.418 91.9366 369.218 91.3717 369.218 90.7071V43.5526C369.218 42.888 369.418 42.3231 369.817 41.8578C370.282 41.3926 370.847 41.16 371.511 41.16H376.097C376.762 41.16 377.327 41.3926 377.792 41.8578C378.257 42.3231 378.49 42.888 378.49 43.5526V47.9391C381.215 43.4197 385.867 41.16 392.447 41.16H396.335C396.999 41.16 397.531 41.3926 397.93 41.8578C398.395 42.2566 398.628 42.7883 398.628 43.4529V47.5403C398.628 48.2049 398.395 48.7366 397.93 49.1354C397.531 49.5342 396.999 49.7335 396.335 49.7335H390.353C386.764 49.7335 383.94 50.7969 381.879 52.9237C379.819 54.984 378.789 57.8086 378.789 61.3975V90.7071C378.789 91.3717 378.556 91.9366 378.091 92.4018C377.626 92.8006 377.061 93 376.396 93H371.511ZM409.383 93C408.718 93 408.153 92.8006 407.688 92.4018C407.289 91.9366 407.09 91.3717 407.09 90.7071V43.4529C407.09 42.7883 407.289 42.2566 407.688 41.8578C408.153 41.3926 408.718 41.16 409.383 41.16H413.869C414.533 41.16 415.065 41.3926 415.464 41.8578C415.929 42.2566 416.162 42.7883 416.162 43.4529V46.9422C419.618 42.4228 424.436 40.1631 430.617 40.1631C437.994 40.1631 443.212 43.2203 446.269 49.3348C447.864 46.5434 450.124 44.3169 453.048 42.6554C455.972 40.9938 459.262 40.1631 462.917 40.1631C468.367 40.1631 472.82 42.024 476.276 45.7458C479.732 49.4677 481.46 54.8511 481.46 61.896V90.7071C481.46 91.3717 481.228 91.9366 480.762 92.4018C480.364 92.8006 479.832 93 479.167 93H474.482C473.817 93 473.252 92.8006 472.787 92.4018C472.388 91.9366 472.189 91.3717 472.189 90.7071V62.7932C472.189 57.6092 471.092 53.8874 468.899 51.6277C466.772 49.368 463.948 48.2382 460.425 48.2382C457.301 48.2382 454.61 49.4012 452.35 51.7274C450.09 53.9871 448.961 57.6757 448.961 62.7932V90.7071C448.961 91.3717 448.728 91.9366 448.263 92.4018C447.864 92.8006 447.332 93 446.668 93H441.982C441.317 93 440.753 92.8006 440.287 92.4018C439.889 91.9366 439.689 91.3717 439.689 90.7071V62.7932C439.689 57.6092 438.559 53.8874 436.3 51.6277C434.106 49.368 431.315 48.2382 427.925 48.2382C424.802 48.2382 422.11 49.4012 419.85 51.7274C417.591 53.9871 416.461 57.6425 416.461 62.6935V90.7071C416.461 91.3717 416.228 91.9366 415.763 92.4018C415.364 92.8006 414.833 93 414.168 93H409.383ZM266.967 211.997C261.45 211.997 256.665 211.133 252.611 209.405C248.623 207.677 245.566 205.417 243.439 202.626C241.313 199.768 240.183 196.711 240.05 193.454C240.05 192.922 240.249 192.457 240.648 192.058C241.113 191.593 241.645 191.361 242.243 191.361H247.327C248.59 191.361 249.454 192.025 249.919 193.354C250.518 196.146 252.212 198.538 255.004 200.532C257.862 202.526 261.849 203.523 266.967 203.523C272.483 203.523 276.637 202.559 279.428 200.632C282.22 198.638 283.615 195.88 283.615 192.358C283.615 190.098 282.918 188.27 281.522 186.874C280.193 185.479 278.199 184.249 275.54 183.186C272.882 182.122 268.894 180.793 263.577 179.198C258.393 177.736 254.273 176.174 251.215 174.513C248.158 172.851 245.865 170.791 244.337 168.332C242.808 165.873 242.044 162.782 242.044 159.06C242.044 155.471 243.007 152.248 244.935 149.39C246.929 146.532 249.753 144.306 253.409 142.711C257.064 141.049 261.417 140.218 266.468 140.218C271.652 140.218 276.105 141.149 279.827 143.01C283.549 144.804 286.374 147.097 288.301 149.889C290.228 152.68 291.258 155.471 291.391 158.263C291.391 158.794 291.192 159.26 290.793 159.658C290.461 160.057 289.962 160.257 289.298 160.257H284.014C282.618 160.257 281.754 159.625 281.422 158.362C281.023 155.571 279.462 153.278 276.737 151.484C274.012 149.623 270.589 148.692 266.468 148.692C261.949 148.692 258.393 149.556 255.801 151.284C253.209 153.012 251.913 155.571 251.913 158.961C251.913 161.22 252.511 163.081 253.708 164.543C254.97 166.006 256.865 167.302 259.39 168.431C261.916 169.495 265.604 170.724 270.456 172.12C276.105 173.649 280.558 175.244 283.815 176.905C287.071 178.5 289.497 180.527 291.092 182.986C292.687 185.379 293.485 188.436 293.485 192.158C293.485 198.339 291.092 203.191 286.307 206.713C281.522 210.236 275.075 211.997 266.967 211.997ZM325.992 211.997C319.146 211.997 313.663 209.903 309.542 205.716C305.488 201.463 303.262 195.681 302.863 188.37L302.763 184.98L302.863 181.69C303.328 174.513 305.588 168.797 309.642 164.543C313.763 160.29 319.179 158.163 325.892 158.163C333.269 158.163 338.985 160.522 343.039 165.241C347.093 169.894 349.12 176.207 349.12 184.183V185.878C349.12 186.542 348.888 187.107 348.422 187.572C348.024 187.971 347.492 188.17 346.827 188.17H312.334V189.068C312.533 193.388 313.829 197.076 316.222 200.134C318.681 203.124 321.904 204.62 325.892 204.62C328.949 204.62 331.441 204.022 333.369 202.825C335.363 201.562 336.825 200.266 337.755 198.937C338.353 198.14 338.785 197.674 339.051 197.542C339.384 197.342 339.949 197.242 340.746 197.242H345.631C346.229 197.242 346.728 197.409 347.126 197.741C347.525 198.073 347.725 198.538 347.725 199.137C347.725 200.599 346.794 202.36 344.933 204.42C343.139 206.481 340.58 208.275 337.257 209.804C334 211.266 330.245 211.997 325.992 211.997ZM339.649 181.292V180.993C339.649 176.407 338.387 172.685 335.861 169.827C333.402 166.903 330.079 165.441 325.892 165.441C321.705 165.441 318.382 166.903 315.923 169.827C313.53 172.685 312.334 176.407 312.334 180.993V181.292H339.649ZM363.333 211C362.669 211 362.104 210.801 361.639 210.402C361.24 209.937 361.04 209.372 361.04 208.707V161.553C361.04 160.888 361.24 160.323 361.639 159.858C362.104 159.393 362.669 159.16 363.333 159.16H367.919C368.584 159.16 369.149 159.393 369.614 159.858C370.079 160.323 370.312 160.888 370.312 161.553V165.939C373.037 161.42 377.689 159.16 384.269 159.16H388.157C388.821 159.16 389.353 159.393 389.752 159.858C390.217 160.257 390.45 160.788 390.45 161.453V165.54C390.45 166.205 390.217 166.737 389.752 167.135C389.353 167.534 388.821 167.734 388.157 167.734H382.175C378.586 167.734 375.762 168.797 373.701 170.924C371.641 172.984 370.611 175.809 370.611 179.398V208.707C370.611 209.372 370.378 209.937 369.913 210.402C369.448 210.801 368.883 211 368.218 211H363.333ZM416.956 211C415.228 211 413.999 210.169 413.268 208.508L394.825 162.25L394.625 161.254C394.625 160.655 394.825 160.157 395.223 159.758C395.622 159.359 396.121 159.16 396.719 159.16H401.504C402.634 159.16 403.465 159.725 403.996 160.855L419.149 200.134L434.303 160.855C434.901 159.725 435.698 159.16 436.695 159.16H441.58C442.112 159.16 442.577 159.359 442.976 159.758C443.441 160.157 443.674 160.655 443.674 161.254L443.474 162.25L424.932 208.508C424.201 210.169 422.971 211 421.243 211H416.956ZM455.608 149.49C454.943 149.49 454.378 149.29 453.913 148.892C453.514 148.426 453.315 147.862 453.315 147.197V141.814C453.315 141.149 453.514 140.584 453.913 140.119C454.378 139.654 454.943 139.421 455.608 139.421H461.889C462.553 139.421 463.118 139.654 463.583 140.119C464.049 140.584 464.281 141.149 464.281 141.814V147.197C464.281 147.862 464.049 148.426 463.583 148.892C463.118 149.29 462.553 149.49 461.889 149.49H455.608ZM456.406 211C455.741 211 455.176 210.801 454.711 210.402C454.312 209.937 454.113 209.372 454.113 208.707V161.453C454.113 160.788 454.312 160.257 454.711 159.858C455.176 159.393 455.741 159.16 456.406 159.16H461.191C461.855 159.16 462.387 159.393 462.786 159.858C463.251 160.257 463.484 160.788 463.484 161.453V208.707C463.484 209.372 463.251 209.937 462.786 210.402C462.387 210.801 461.855 211 461.191 211H456.406ZM499.192 211.997C492.081 211.997 486.498 210.003 482.444 206.015C478.456 201.961 476.329 196.312 476.064 189.068L475.964 185.08L476.064 181.092C476.329 173.848 478.456 168.232 482.444 164.244C486.498 160.19 492.081 158.163 499.192 158.163C503.977 158.163 508.032 159.027 511.355 160.755C514.678 162.483 517.137 164.61 518.732 167.135C520.393 169.661 521.291 172.186 521.424 174.712C521.49 175.377 521.291 175.908 520.825 176.307C520.36 176.706 519.795 176.905 519.131 176.905H514.345C513.681 176.905 513.182 176.772 512.85 176.506C512.518 176.241 512.185 175.709 511.853 174.911C510.723 171.721 509.128 169.462 507.068 168.132C505.008 166.737 502.416 166.039 499.292 166.039C495.171 166.039 491.881 167.335 489.422 169.927C487.03 172.452 485.734 176.34 485.534 181.591L485.435 185.18L485.534 188.569C485.734 193.886 487.03 197.807 489.422 200.333C491.815 202.858 495.105 204.121 499.292 204.121C502.416 204.121 505.008 203.457 507.068 202.127C509.128 200.732 510.723 198.439 511.853 195.249C512.185 194.451 512.518 193.919 512.85 193.654C513.182 193.321 513.681 193.155 514.345 193.155H519.131C519.795 193.155 520.36 193.388 520.825 193.853C521.291 194.252 521.49 194.783 521.424 195.448C521.291 197.907 520.393 200.433 518.732 203.025C517.137 205.55 514.678 207.677 511.355 209.405C508.098 211.133 504.044 211.997 499.192 211.997ZM553.999 211.997C547.153 211.997 541.67 209.903 537.55 205.716C533.495 201.463 531.269 195.681 530.87 188.37L530.771 184.98L530.87 181.69C531.335 174.513 533.595 168.797 537.649 164.543C541.77 160.29 547.187 158.163 553.899 158.163C561.276 158.163 566.992 160.522 571.046 165.241C575.1 169.894 577.127 176.207 577.127 184.183V185.878C577.127 186.542 576.895 187.107 576.43 187.572C576.031 187.971 575.499 188.17 574.835 188.17H540.341V189.068C540.54 193.388 541.836 197.076 544.229 200.134C546.688 203.124 549.911 204.62 553.899 204.62C556.956 204.62 559.449 204.022 561.376 202.825C563.37 201.562 564.832 200.266 565.763 198.937C566.361 198.14 566.793 197.674 567.059 197.542C567.391 197.342 567.956 197.242 568.753 197.242H573.638C574.236 197.242 574.735 197.409 575.134 197.741C575.532 198.073 575.732 198.538 575.732 199.137C575.732 200.599 574.801 202.36 572.94 204.42C571.146 206.481 568.587 208.275 565.264 209.804C562.007 211.266 558.252 211.997 553.999 211.997ZM567.657 181.292V180.993C567.657 176.407 566.394 172.685 563.868 169.827C561.409 166.903 558.086 165.441 553.899 165.441C549.712 165.441 546.389 166.903 543.93 169.827C541.537 172.685 540.341 176.407 540.341 180.993V181.292H567.657Z" fill="#EAEAEA"/>
</svg>
