<?xml version="1.0" standalone="no"?>
<!DOCTYPE svg PUBLIC "-//W3C//DTD SVG 20010904//EN"
 "http://www.w3.org/TR/2001/REC-SVG-20010904/DTD/svg10.dtd">
<svg version="1.0" xmlns="http://www.w3.org/2000/svg"
 width="1600.000000pt" height="1600.000000pt" viewBox="0 0 1600.000000 1600.000000"
 preserveAspectRatio="xMidYMid meet">

<g transform="translate(0.000000,1600.000000) scale(0.100000,-0.100000)"
fill="#000000" stroke="none">
<path d="M11406 13129 c-502 -49 -962 -217 -1305 -479 -98 -74 -240 -208 -301
-284 -38 -47 -49 -55 -70 -50 -37 9 -150 31 -191 38 -35 6 -38 11 -119 168
-90 174 -133 231 -203 266 -69 35 -122 40 -319 31 -667 -29 -1239 -230 -1693
-596 -123 -99 -272 -252 -366 -378 -39 -52 -74 -95 -78 -95 -4 0 -16 6 -27 14
-106 75 -372 173 -560 207 l-122 23 -93 193 c-101 211 -133 253 -227 296 -43
20 -62 22 -222 21 -367 -3 -741 -66 -1080 -182 -929 -317 -1540 -1037 -1645
-1940 -40 -343 -3 -750 102 -1107 20 -66 37 -129 40 -140 3 -12 -13 -50 -41
-95 -105 -175 -135 -354 -100 -602 30 -221 86 -398 168 -538 56 -97 98 -137
188 -180 l72 -35 23 -109 c50 -245 118 -445 215 -640 86 -171 162 -290 213
-332 l45 -36 0 -237 c0 -130 -5 -314 -10 -409 -9 -168 -11 -175 -42 -235 -18
-34 -64 -95 -102 -134 -156 -165 -324 -261 -911 -520 -511 -226 -802 -381
-1044 -558 -519 -380 -823 -864 -930 -1485 -42 -240 -44 -366 -7 -454 21 -50
92 -124 151 -154 l50 -27 4370 0 4370 0 57 28 c110 54 178 166 178 292 0 226
-91 610 -199 841 -23 48 -41 91 -41 95 0 5 717 10 1593 11 l1592 3 52 27 c63
34 116 84 143 138 33 65 41 129 29 248 -24 250 -99 513 -209 732 l-60 120
1113 0 c1217 0 1161 -3 1250 59 99 68 144 177 132 320 -31 386 -167 738 -395
1026 -67 84 -249 259 -348 334 -204 154 -502 314 -877 470 -555 231 -673 285
-799 369 -85 56 -168 138 -198 195 -22 40 -23 54 -26 336 l-4 293 35 37 c130
137 267 452 335 770 10 47 25 88 33 92 8 5 40 20 72 34 47 22 65 37 98 87 86
127 143 287 174 493 19 126 19 200 0 308 -21 122 -50 193 -86 214 -16 10 -29
22 -29 29 0 6 18 55 41 110 84 206 91 243 97 496 5 247 -4 360 -44 550 -69
330 -217 630 -412 839 -164 174 -388 290 -672 347 l-95 19 -76 154 c-119 239
-167 270 -417 268 -81 -1 -187 -6 -236 -10z m197 -756 c60 -126 93 -165 172
-204 55 -27 80 -32 179 -40 140 -10 191 -22 281 -65 164 -78 301 -238 388
-455 73 -183 109 -383 108 -614 0 -225 -41 -411 -116 -534 -82 -134 -64 -294
45 -400 31 -29 43 -51 47 -79 7 -52 -21 -190 -52 -260 -24 -54 -31 -61 -83
-82 -66 -28 -129 -87 -159 -150 -12 -25 -29 -88 -38 -140 -21 -130 -49 -225
-102 -355 -69 -169 -118 -251 -196 -328 -44 -44 -79 -89 -95 -125 l-27 -57 0
-450 1 -450 27 -80 c74 -209 233 -401 463 -555 139 -92 390 -218 694 -345 626
-262 800 -351 1005 -510 139 -108 232 -219 305 -365 34 -66 80 -183 80 -200 0
-7 -418 -10 -1180 -10 l-1179 0 -103 69 c-240 161 -485 281 -1042 510 -387
160 -530 224 -650 292 -167 95 -274 186 -332 284 -21 37 -25 60 -34 215 -5 96
-10 256 -10 355 l0 179 48 46 c54 52 153 207 213 334 53 113 120 320 153 471
14 66 28 130 31 141 3 15 22 28 62 44 80 32 116 61 164 132 87 128 144 289
179 503 32 191 25 338 -22 488 -17 56 -29 75 -67 107 -43 37 -45 41 -34 67 6
15 32 78 57 138 64 155 84 243 96 423 41 607 -148 1230 -482 1587 l-73 78 65
59 c237 217 594 361 1020 412 63 8 122 14 131 15 10 1 31 -32 62 -96z m-2644
-341 c109 -218 163 -255 391 -272 183 -14 262 -38 400 -125 316 -199 503 -642
502 -1195 0 -238 -39 -433 -112 -555 -59 -99 -73 -139 -78 -210 -6 -103 22
-170 106 -254 l65 -65 -6 -85 c-7 -101 -37 -225 -73 -298 -23 -48 -29 -53 -78
-67 -101 -30 -184 -113 -210 -210 -8 -28 -23 -103 -35 -166 -27 -142 -86 -322
-151 -458 -50 -104 -135 -242 -149 -242 -22 0 -115 -106 -139 -157 -26 -57
-26 -62 -30 -319 -5 -281 12 -711 30 -784 49 -200 242 -451 468 -612 205 -145
398 -241 910 -448 457 -186 598 -249 772 -346 321 -179 519 -365 640 -599 40
-78 118 -280 118 -306 0 -5 -652 -9 -1594 -9 l-1593 0 -79 66 c-296 247 -624
427 -1259 691 -662 275 -830 360 -993 508 -77 70 -149 170 -169 233 -12 37
-16 131 -20 433 l-6 386 42 34 c85 68 238 355 315 589 42 129 97 352 111 452
l7 47 71 28 c99 39 158 99 224 228 141 276 196 659 133 921 -27 113 -37 133
-91 184 l-49 45 41 90 c111 247 139 371 146 646 13 487 -78 919 -275 1305
l-59 115 41 72 c132 231 364 450 626 590 122 65 301 133 456 172 143 37 403
78 526 83 l38 2 69 -138z m-3454 -351 c84 -169 112 -205 185 -245 45 -24 69
-30 173 -37 222 -17 357 -55 484 -138 74 -48 163 -129 163 -147 0 -43 68 -143
123 -181 84 -58 189 -333 243 -638 27 -148 27 -589 0 -730 -28 -149 -60 -248
-118 -364 -49 -96 -52 -109 -52 -176 0 -96 43 -189 114 -243 42 -32 50 -44 61
-92 21 -97 -21 -323 -84 -449 -30 -61 -35 -66 -77 -76 -140 -36 -226 -141
-245 -300 -26 -223 -137 -545 -261 -755 -27 -47 -86 -123 -132 -172 -132 -140
-126 -116 -130 -558 -5 -473 9 -724 44 -830 73 -217 232 -424 461 -598 222
-169 450 -281 1158 -567 237 -96 594 -271 742 -363 169 -106 256 -174 384
-301 126 -125 203 -232 270 -375 44 -95 119 -310 119 -343 l0 -23 -3895 0
c-2157 0 -3895 4 -3895 9 0 22 65 230 95 305 82 203 158 320 304 467 242 243
509 401 1171 694 524 231 761 359 964 521 196 157 319 315 409 526 53 122 60
222 61 783 l1 460 -33 67 c-29 58 -99 138 -122 138 -16 0 -96 130 -155 248
-116 234 -191 456 -219 645 -19 130 -46 187 -116 250 -46 42 -120 77 -160 77
-41 0 -125 250 -137 410 -8 108 7 150 72 214 100 97 135 230 90 346 -101 263
-152 455 -176 654 -17 146 -7 444 20 580 118 590 489 1026 1074 1262 254 103
649 188 889 193 l58 1 75 -149z"/>
</g>
</svg>
