<?xml version="1.0" standalone="no"?>
<!DOCTYPE svg PUBLIC "-//W3C//DTD SVG 20010904//EN"
 "http://www.w3.org/TR/2001/REC-SVG-20010904/DTD/svg10.dtd">
<svg version="1.0" xmlns="http://www.w3.org/2000/svg"
 width="1600.000000pt" height="1600.000000pt" viewBox="0 0 1600.000000 1600.000000"
 preserveAspectRatio="xMidYMid meet">

<g transform="translate(0.000000,1600.000000) scale(0.100000,-0.100000)"
fill="#000000" stroke="none">
<path d="M5047 15350 c-92 -24 -168 -85 -216 -175 l-26 -50 -3 -1254 -2 -1255
-383 382 c-436 434 -439 436 -577 436 -127 0 -228 -63 -288 -179 -21 -41 -26
-65 -26 -130 -2 -148 -34 -110 733 -877 759 -760 712 -721 861 -722 70 -1 94
4 135 23 40 19 188 162 727 700 763 762 732 725 732 871 0 127 -63 228 -179
288 -41 21 -65 26 -130 26 -141 2 -143 0 -582 -437 l-383 -381 -2 1249 -3
1250 -26 56 c-32 68 -88 124 -155 155 -58 27 -151 38 -207 24z"/>
<path d="M11550 11509 c-252 -21 -528 -79 -750 -158 -119 -43 -400 -177 -400
-191 0 -4 26 -23 58 -40 523 -294 925 -884 1082 -1590 95 -427 100 -914 14
-1317 l-24 -112 19 -83 c35 -151 44 -258 38 -430 -17 -459 -167 -876 -422
-1168 -57 -65 -69 -87 -96 -170 -73 -219 -195 -488 -293 -644 l-56 -88 0 -112
0 -112 125 -62 c68 -34 252 -114 407 -178 713 -293 1014 -442 1323 -659 418
-293 713 -628 912 -1036 l78 -159 775 2 775 3 55 26 c99 47 170 141 186 246
15 102 -36 411 -98 598 -137 408 -428 755 -857 1017 -205 126 -405 222 -821
392 -542 223 -753 343 -853 486 l-32 45 -3 301 -4 300 61 85 c115 158 258 477
316 704 15 62 23 74 57 99 22 16 64 58 93 94 217 263 301 755 178 1046 l-25
60 26 85 c64 214 92 556 67 816 -46 470 -220 875 -490 1145 -193 192 -403 305
-664 356 l-89 17 -64 129 c-74 148 -114 197 -192 235 -52 26 -67 28 -182 30
-69 0 -172 -3 -230 -8z"/>
<path d="M8910 11194 c-349 -24 -707 -100 -988 -210 -214 -83 -477 -230 -634
-355 l-48 -38 72 -59 c88 -72 243 -230 320 -328 418 -525 641 -1299 607 -2099
-9 -204 -24 -327 -65 -527 l-27 -127 21 -83 c35 -143 46 -237 45 -413 -1 -490
-172 -983 -447 -1293 -59 -68 -68 -84 -102 -185 -94 -284 -225 -575 -344 -762
-56 -89 -55 -80 -43 -306 l6 -127 76 -44 c67 -39 269 -138 371 -181 19 -8 163
-69 320 -135 695 -292 1007 -458 1365 -726 416 -312 742 -728 926 -1186 l38
-95 1228 3 c799 2 1242 7 1268 14 130 33 226 143 242 275 13 111 -39 425 -102
618 -40 122 -134 325 -197 425 -150 237 -387 473 -663 657 -270 180 -464 274
-1095 533 -190 78 -404 170 -476 206 -236 116 -395 236 -463 348 l-34 56 -4
343 -5 342 35 40 c150 173 322 538 401 852 20 80 23 84 81 130 101 82 189 205
247 345 129 315 143 702 33 919 l-25 48 19 48 c62 160 102 434 102 704 1 966
-465 1704 -1195 1893 -54 15 -123 29 -153 32 l-54 7 -76 150 c-86 170 -129
224 -212 264 -52 26 -65 28 -186 29 -71 1 -155 0 -185 -2z"/>
<path d="M5350 10869 c-486 -40 -850 -135 -1225 -319 -320 -156 -584 -362
-805 -625 -531 -633 -693 -1515 -434 -2366 l36 -118 -41 -83 c-107 -217 -118
-461 -35 -791 39 -156 96 -291 167 -397 39 -58 131 -154 183 -191 39 -26 43
-34 59 -104 71 -320 277 -764 447 -967 l40 -47 -4 -398 -4 -398 -34 -60 c-47
-84 -188 -221 -308 -299 -141 -93 -300 -173 -682 -344 -442 -198 -501 -226
-660 -312 -578 -312 -948 -664 -1168 -1112 -108 -220 -163 -394 -207 -655 -35
-202 -42 -344 -22 -414 32 -108 126 -194 238 -218 41 -9 1135 -11 4419 -9
l4365 3 50 23 c66 30 138 102 167 166 37 84 28 265 -28 544 -68 343 -230 683
-444 937 -306 363 -715 634 -1396 923 -115 49 -319 135 -454 193 -511 216
-745 362 -865 540 l-52 75 -6 109 c-4 59 -7 243 -7 408 l0 301 44 56 c166 211
339 594 427 944 21 85 23 89 73 125 187 139 314 392 372 741 41 252 23 457
-58 632 l-30 67 31 98 c73 232 102 445 102 748 0 625 -178 1181 -506 1574
-224 269 -556 463 -890 520 -38 7 -80 14 -93 17 -19 4 -40 39 -108 180 -93
192 -130 241 -219 284 -45 22 -64 24 -190 26 -77 1 -187 -2 -245 -7z"/>
</g>
</svg>
