<?xml version="1.0" standalone="no"?>
<!DOCTYPE svg PUBLIC "-//W3C//DTD SVG 20010904//EN"
 "http://www.w3.org/TR/2001/REC-SVG-20010904/DTD/svg10.dtd">
<svg version="1.0" xmlns="http://www.w3.org/2000/svg"
 width="1170.000000pt" height="656.000000pt" viewBox="0 0 1170.000000 656.000000"
 preserveAspectRatio="xMidYMid meet">

<g transform="translate(0.000000,656.000000) scale(0.100000,-0.100000)"
fill="#000000" stroke="none">
<path d="M5640 3468 c-89 -51 -99 -67 -140 -230 -16 -62 -38 -138 -49 -168
-28 -75 -27 -147 0 -176 l21 -23 -33 -58 c-31 -53 -34 -68 -40 -163 -4 -76
-13 -130 -34 -195 -46 -143 -42 -233 19 -454 38 -140 46 -178 37 -200 -5 -14
-13 -40 -16 -58 -6 -28 -11 -32 -43 -35 -43 -3 -52 -31 -12 -36 13 -2 29 -11
35 -19 7 -9 33 -17 70 -19 32 -2 59 -5 60 -7 1 -1 15 -20 33 -43 28 -37 31
-46 26 -91 -5 -37 0 -70 21 -138 30 -98 29 -125 -6 -253 -11 -40 -22 -103 -24
-140 -2 -37 -8 -87 -14 -112 -6 -25 -13 -126 -16 -225 -7 -213 -17 -288 -51
-368 -17 -40 -23 -68 -19 -88 6 -25 4 -29 -14 -29 -12 0 -21 -6 -21 -15 0 -17
6 -18 238 -40 208 -21 322 -15 322 16 0 13 -7 19 -21 19 -36 0 -4 27 41 34 22
3 40 12 40 19 -1 30 -42 54 -153 91 -144 47 -151 55 -138 147 13 92 133 417
160 434 6 3 11 14 11 24 0 15 11 19 66 24 36 2 67 7 70 10 3 3 12 72 21 154
14 136 14 170 -2 423 -16 240 -17 296 -5 440 17 220 15 265 -14 316 -13 23
-27 64 -30 90 -4 27 -18 65 -32 84 -19 29 -25 53 -30 130 -6 83 -11 103 -40
157 -19 34 -34 73 -34 88 0 30 -14 61 -42 92 -40 43 1 118 79 143 46 14 48 17
54 60 4 25 6 75 4 113 -1 37 2 67 6 67 14 0 29 38 23 54 -3 9 -16 16 -29 16
-18 0 -24 7 -28 35 -8 51 -42 100 -80 118 -17 9 -63 18 -102 21 -69 6 -71 6
-145 -36z m-67 -1226 c-1 -81 -7 -143 -16 -172 -14 -42 -15 -43 -17 -15 -2 17
-3 64 -5 105 -1 41 -5 95 -10 119 -6 35 -4 51 10 78 30 56 40 27 38 -115z"/>
<path d="M7092 3475 c-51 -22 -102 -66 -157 -135 -51 -64 -100 -98 -170 -120
-22 -7 -51 -21 -65 -30 -14 -10 -42 -23 -63 -31 -62 -22 -111 -72 -155 -156
-48 -93 -59 -157 -43 -245 11 -57 10 -72 -12 -157 -29 -113 -23 -149 30 -178
l35 -18 -4 -120 c-2 -81 -9 -131 -19 -155 -20 -44 -40 -168 -32 -199 3 -12 0
-33 -7 -46 -11 -20 -7 -40 25 -147 21 -68 46 -141 56 -163 12 -29 20 -93 28
-227 7 -116 23 -252 41 -355 40 -226 38 -216 58 -208 50 21 55 20 47 -11 -4
-16 -19 -108 -35 -204 -20 -131 -36 -198 -62 -265 -39 -98 -50 -136 -50 -177
-1 -20 -7 -28 -22 -30 -12 -2 -21 -10 -21 -18 0 -19 185 -39 405 -42 l155 -3
-1 38 c0 20 5 37 10 37 6 0 28 5 49 11 37 10 51 29 22 29 -8 0 -15 9 -15 20 0
13 -7 20 -20 20 -12 0 -33 6 -48 14 -15 8 -73 26 -130 41 -75 21 -106 34 -114
48 -24 45 -3 154 68 352 37 105 72 193 78 197 6 4 21 5 33 2 12 -3 30 -3 41 0
17 6 20 22 28 169 5 89 8 313 6 497 -3 369 -9 417 -63 504 -16 27 -28 54 -26
60 3 6 25 17 49 23 l45 12 7 65 6 65 -47 51 c-26 29 -67 63 -89 76 -50 29 -50
30 -66 138 -10 70 -9 93 2 133 9 30 15 101 16 188 1 174 2 185 14 185 5 0 18
-20 29 -45 18 -41 24 -46 53 -45 18 0 62 -2 98 -4 65 -3 65 -3 98 35 23 26 42
39 59 39 40 0 122 59 151 109 22 38 26 57 25 116 -1 131 -64 240 -151 265 -52
14 -141 12 -180 -5z"/>
<path d="M1168 3449 c-21 -11 -38 -24 -38 -30 0 -6 -13 -27 -30 -46 -16 -18
-30 -44 -30 -57 0 -13 -7 -29 -15 -36 -21 -18 -19 -73 5 -103 11 -14 17 -32
14 -41 -4 -11 3 -25 20 -41 22 -21 31 -41 28 -66 -1 -4 19 -12 43 -18 25 -6
49 -19 55 -30 8 -16 5 -23 -21 -42 -39 -27 -101 -63 -159 -90 -25 -12 -66 -44
-91 -70 -25 -27 -51 -49 -58 -49 -19 0 -217 -137 -240 -166 -27 -35 -27 -75 2
-100 59 -52 209 -136 329 -183 71 -28 82 -41 103 -119 15 -54 16 -72 6 -135
-7 -39 -13 -85 -13 -102 0 -59 22 -223 48 -360 15 -82 26 -170 25 -212 -1 -43
4 -87 13 -106 11 -27 12 -59 6 -153 -5 -65 -8 -119 -7 -120 1 -1 15 -6 31 -11
27 -8 31 -16 43 -76 8 -37 34 -135 58 -217 25 -82 45 -164 45 -182 -1 -47 -25
-131 -38 -136 -7 -2 -12 -14 -12 -28 0 -28 3 -29 154 -45 116 -12 287 -5 317
14 13 8 31 7 72 -6 94 -30 237 -15 237 24 0 11 -7 19 -15 19 -8 0 -21 14 -30
30 -9 17 -20 30 -26 30 -16 0 -106 98 -122 133 -25 53 -45 207 -67 502 -11
154 -25 316 -30 360 -7 51 -7 106 -2 150 5 39 8 73 5 77 -2 4 1 37 7 73 9 57
8 74 -9 123 -28 84 -50 193 -45 222 3 14 -8 79 -25 145 -28 114 -71 345 -71
386 0 10 7 19 15 19 26 0 38 38 26 84 -5 22 -13 63 -16 91 -12 87 -41 151 -79
169 -19 9 -39 16 -46 16 -6 0 -9 4 -5 9 3 5 10 44 15 87 8 61 7 82 -4 98 -17
28 -19 141 -2 190 16 45 10 76 -13 76 -9 0 -31 9 -49 20 -74 45 -249 61 -314
29z m-209 -939 c25 -21 41 -28 60 -24 23 5 29 0 50 -43 13 -26 30 -62 37 -80
l14 -32 -83 46 c-94 52 -177 111 -177 124 0 7 48 38 60 38 3 0 20 -13 39 -29z
m659 -1582 c17 -51 33 -109 37 -128 4 -19 22 -84 42 -145 35 -111 36 -121 17
-229 -5 -27 -3 -41 7 -47 9 -6 -1 -9 -29 -9 -29 0 -44 5 -48 15 -4 8 -32 29
-64 46 -60 32 -66 40 -100 129 -18 46 -48 287 -50 390 0 26 81 65 142 69 13 1
24 -21 46 -91z"/>
<path d="M8594 3169 c-35 -10 -65 -42 -155 -164 -69 -93 -99 -150 -99 -189 0
-16 -10 -36 -25 -50 -14 -13 -28 -38 -31 -57 -3 -19 -15 -53 -26 -76 -11 -24
-20 -64 -21 -90 -2 -48 -2 -48 31 -48 l33 0 6 -180 c5 -176 11 -210 45 -257
10 -14 8 -25 -9 -60 -22 -44 -25 -72 -27 -243 -1 -99 -1 -101 44 -190 l45 -90
-4 -122 -3 -122 41 -7 c58 -9 70 -22 82 -88 12 -68 8 -124 -16 -216 -21 -78
-16 -217 14 -380 18 -99 18 -111 3 -199 l-15 -94 24 -20 c18 -14 34 -18 66
-14 30 3 43 1 43 -8 0 -33 27 -37 123 -21 52 9 112 16 132 16 41 0 145 30 145
42 0 14 -38 27 -71 26 -46 -1 -140 43 -168 78 -22 27 -23 35 -17 124 4 52 16
158 27 235 10 77 19 167 19 201 0 33 3 109 7 167 l6 107 49 0 c57 0 59 7 27
90 -19 49 -21 76 -21 244 1 145 -3 200 -14 230 -34 91 -45 133 -51 200 l-6 71
24 -21 c13 -11 57 -42 96 -68 40 -26 77 -55 82 -63 6 -11 31 -19 75 -24 37 -5
76 -15 89 -24 27 -19 47 -19 47 0 0 9 6 12 15 9 25 -10 18 31 -11 65 -28 34
-76 51 -147 51 -45 0 -50 3 -106 63 -32 34 -87 99 -121 145 l-62 83 5 112 c3
62 10 129 17 150 l11 37 68 0 c62 0 70 2 85 25 21 32 21 130 0 203 -55 191
-75 235 -136 302 -94 104 -172 136 -264 109z m65 -2724 c1 -65 -2 -96 -9 -89
-16 16 -23 97 -15 171 11 92 23 52 24 -82z"/>
<path d="M4764 3008 c-56 -38 -108 -103 -125 -156 -6 -20 -13 -85 -15 -144 -1
-59 -6 -117 -9 -129 -7 -22 27 -69 52 -69 18 0 16 -14 -8 -85 -18 -54 -21 -88
-23 -346 -2 -157 -6 -292 -11 -298 -10 -18 -19 -122 -17 -205 2 -85 13 -122
65 -209 40 -68 40 -68 34 -147 -6 -73 -10 -85 -57 -161 -74 -117 -74 -113 -5
-106 l57 6 -8 -92 c-12 -119 -8 -236 11 -334 18 -95 19 -158 3 -235 -10 -46
-10 -63 0 -78 7 -11 12 -26 12 -33 0 -11 34 -15 163 -19 172 -6 277 3 314 27
12 8 31 15 41 15 10 0 26 6 36 13 16 12 14 16 -30 50 -26 20 -55 37 -65 37
-10 0 -21 4 -24 10 -3 5 -20 10 -36 10 -38 0 -76 20 -114 61 l-29 31 18 86
c28 136 134 451 161 478 23 23 23 26 10 62 -7 20 -29 71 -48 112 -19 41 -45
106 -58 144 -19 61 -20 74 -9 105 7 20 21 44 31 54 24 23 24 54 -1 117 -19 48
-19 62 -11 208 8 128 16 570 12 686 -1 18 -13 40 -36 63 -19 19 -35 37 -35 39
0 2 22 4 49 4 54 0 54 0 67 75 3 22 13 48 21 57 13 15 13 20 -4 45 -15 22 -20
47 -21 117 -1 77 -5 92 -24 113 -31 33 -108 53 -204 53 -76 0 -85 -2 -130 -32z
m186 -2063 c0 -3 -13 -24 -30 -47 -16 -22 -30 -52 -30 -65 0 -12 -4 -23 -10
-23 -17 0 -12 107 6 124 14 15 64 23 64 11z"/>
<path d="M11312 2870 c-93 -22 -133 -127 -137 -360 -2 -83 -7 -123 -19 -145
-21 -39 -20 -59 3 -131 12 -38 22 -106 26 -194 5 -99 12 -144 25 -170 15 -30
16 -39 5 -60 -33 -64 -47 -153 -42 -265 5 -90 9 -112 24 -123 13 -9 21 -38 30
-105 24 -180 26 -248 10 -312 -30 -116 -30 -149 -6 -341 22 -178 23 -187 6
-234 -27 -75 -24 -87 25 -100 45 -13 215 -6 305 11 57 11 87 34 62 50 -8 5
-20 7 -27 4 -18 -6 -168 43 -187 61 -19 19 -19 2 9 179 14 83 30 191 36 240 7
50 18 115 26 146 8 31 14 74 14 95 0 22 6 63 14 91 8 29 17 76 21 105 8 59 65
187 102 229 50 55 65 96 58 158 -9 76 -21 124 -51 201 -18 46 -33 120 -50 260
-21 161 -28 197 -44 208 -15 11 -17 19 -8 49 9 35 6 106 -7 169 -5 22 -1 42
14 69 28 52 9 118 -54 194 -25 29 -31 31 -88 30 -34 -1 -77 -5 -95 -9z m309
-1176 c23 -48 19 -60 -21 -66 -17 -2 -26 2 -28 14 -3 18 16 98 23 98 3 0 15
-21 26 -46z"/>
<path d="M7320 2782 c0 -6 -19 -24 -43 -41 -47 -32 -63 -67 -74 -160 -4 -39 0
-60 21 -106 14 -32 26 -62 26 -67 0 -5 9 -21 20 -36 20 -27 19 -62 -1 -62 -5
0 -9 -7 -9 -16 0 -9 -14 -45 -31 -81 -52 -110 -70 -187 -57 -246 8 -39 7 -76
-2 -148 -7 -55 -11 -135 -7 -185 4 -71 2 -92 -10 -106 -11 -12 -16 -52 -20
-157 -5 -125 -4 -143 12 -168 16 -23 19 -52 21 -168 1 -77 7 -156 13 -175 9
-27 7 -62 -6 -151 -16 -111 -16 -121 1 -220 28 -156 31 -228 13 -290 -9 -29
-14 -56 -11 -61 3 -4 -2 -11 -10 -14 -9 -3 -16 -12 -16 -20 0 -11 24 -14 116
-14 100 0 119 -3 130 -18 11 -15 35 -17 247 -17 183 0 237 3 250 14 24 20 21
40 -8 47 -14 3 -25 12 -25 20 0 9 -12 14 -37 14 -21 0 -68 12 -105 26 -116 44
-144 95 -178 329 -24 157 -24 194 -5 254 8 25 19 109 24 186 12 171 22 224 55
295 31 66 32 98 7 148 -17 33 -19 60 -18 247 0 183 -2 214 -17 244 -13 24 -16
45 -12 71 4 25 -1 57 -14 95 -11 32 -20 69 -20 82 0 13 -9 37 -20 53 -63 94
-60 87 -44 101 11 9 20 9 40 0 14 -6 35 -11 47 -11 32 1 75 43 80 79 3 18 10
38 16 45 8 10 8 22 1 40 -7 19 -7 34 1 48 7 13 8 48 4 99 l-7 78 -52 32 c-28
18 -62 39 -76 48 -14 8 -32 16 -40 16 -29 2 -81 18 -86 26 -2 4 -16 4 -31 -2
-18 -6 -30 -6 -39 2 -10 8 -14 8 -14 1z m74 -2373 c41 -120 57 -199 41 -199
-4 0 -19 7 -35 15 -52 27 -64 65 -68 210 -2 83 0 126 6 120 5 -5 30 -71 56
-146z"/>
<path d="M2663 2560 c-18 -6 -40 -21 -49 -35 -22 -33 -35 -192 -24 -284 6 -40
7 -85 3 -99 -4 -19 0 -29 18 -43 19 -14 22 -20 12 -30 -15 -15 -17 -85 -3 -94
14 -9 12 -69 -4 -107 -32 -77 -56 -178 -56 -239 0 -53 -4 -71 -25 -98 -17 -24
-22 -39 -15 -50 10 -20 -2 -166 -18 -226 -6 -22 -13 -52 -16 -66 -3 -14 -22
-47 -42 -73 -34 -45 -35 -48 -17 -61 10 -8 25 -15 34 -15 49 -1 40 -58 -27
-166 -46 -75 -85 -197 -99 -319 -8 -61 -23 -101 -56 -144 -22 -27 -25 -56 -7
-67 11 -7 53 -17 135 -31 18 -3 41 -2 50 2 16 6 16 8 -5 25 -37 30 -53 81 -41
126 19 68 149 348 173 374 14 14 36 51 50 83 l25 57 43 -6 c24 -4 48 -13 55
-22 22 -27 26 -95 9 -152 -11 -38 -16 -98 -17 -209 0 -141 -4 -187 -25 -288
-10 -51 12 -56 179 -42 192 15 203 23 91 61 -107 36 -124 49 -124 99 0 41 37
314 46 339 11 31 34 288 34 382 0 61 -7 127 -19 178 -15 62 -17 88 -9 110 5
17 14 30 18 30 5 0 45 -34 90 -75 72 -66 86 -75 120 -75 20 0 54 -7 73 -15 41
-17 83 -20 91 -6 3 5 -13 27 -35 50 -49 48 -47 67 4 63 27 -3 37 0 37 10 0 10
-25 18 -82 28 -81 12 -84 14 -133 65 -27 29 -69 78 -93 109 -43 57 -44 57 -46
149 -2 63 -8 104 -20 129 -17 34 -17 40 -2 69 19 38 19 39 6 39 -11 0 -24 10
-60 42 -24 21 -34 60 -26 93 7 28 11 30 68 40 29 4 38 12 48 38 26 69 29 99
13 115 -9 10 -13 24 -8 41 3 14 8 46 11 71 11 86 -40 116 -213 125 -49 2 -103
0 -120 -5z m487 -1211 c0 -5 -9 -1 -20 8 -11 10 -20 22 -20 27 0 5 9 1 20 -9
11 -10 20 -22 20 -26z"/>
<path d="M176 2551 c-4 -6 -16 -11 -27 -11 -21 0 -93 -42 -106 -62 -9 -14 -11
-27 -19 -108 -4 -46 -1 -63 20 -103 14 -26 26 -55 26 -63 0 -8 12 -20 26 -26
22 -10 25 -17 21 -47 -3 -20 -15 -67 -27 -106 -21 -65 -22 -88 -22 -345 0
-218 4 -291 17 -350 9 -41 21 -110 26 -152 10 -76 9 -79 -26 -164 -20 -48 -47
-108 -60 -134 -23 -46 -23 -48 -6 -64 16 -15 19 -15 36 4 18 20 18 20 37 -11
19 -31 33 -32 33 -2 0 9 5 18 11 20 7 2 11 -39 10 -134 0 -76 4 -189 8 -251 7
-83 6 -112 -3 -112 -6 0 -11 -9 -11 -20 0 -10 -7 -23 -16 -28 -24 -13 -14 -64
15 -78 30 -15 294 -12 334 4 21 9 27 18 27 42 0 29 -1 30 -50 30 -44 0 -55 4
-85 35 -20 19 -41 32 -49 29 -38 -15 -45 73 -21 256 21 156 22 158 48 162 20
3 22 9 24 60 1 31 11 103 22 160 31 157 53 278 58 326 3 23 10 42 17 42 7 0
20 6 30 13 17 13 17 17 -4 103 -12 49 -33 123 -47 164 -13 41 -38 127 -54 190
-24 89 -41 130 -75 183 -48 73 -54 111 -19 113 11 1 26 2 33 3 39 4 57 152 39
303 -10 76 -14 88 -35 97 -12 6 -31 11 -40 11 -10 0 -23 5 -29 11 -8 8 -13 8
-17 0 -11 -17 -44 -13 -54 5 -6 11 -11 13 -16 5z"/>
<path d="M9701 2540 c-59 -12 -87 -32 -122 -88 -36 -57 -52 -112 -44 -155 4
-20 1 -39 -8 -51 -15 -21 -6 -49 26 -84 67 -71 66 -71 39 -96 -13 -11 -25 -49
-36 -114 -10 -53 -27 -121 -37 -150 -28 -78 -25 -103 15 -130 39 -27 44 -42
35 -127 -5 -44 -16 -76 -43 -120 -25 -43 -36 -72 -36 -100 0 -61 27 -148 52
-170 43 -38 63 -80 79 -170 9 -49 22 -122 29 -161 12 -63 12 -76 -4 -120 -41
-115 -48 -158 -48 -306 0 -143 -9 -212 -39 -285 -9 -22 -10 -36 -3 -43 11 -11
319 -16 347 -5 26 11 21 35 -9 35 -14 0 -23 4 -20 9 3 5 40 9 82 9 50 1 80 6
85 14 11 17 2 28 -24 28 -12 0 -56 11 -97 23 -89 28 -100 42 -100 137 0 96 26
326 44 395 19 69 20 117 5 165 -6 19 -12 102 -15 183 -2 82 -6 152 -9 157 -3
5 4 23 17 40 22 30 22 31 5 63 -15 28 -16 40 -7 78 6 24 14 54 17 67 7 30 16
28 63 -14 22 -20 43 -34 47 -30 4 3 1 12 -5 18 -24 24 -11 29 21 9 44 -27 55
-15 20 21 -29 31 -16 37 27 13 29 -17 60 -19 60 -5 0 18 -63 81 -101 101 -21
10 -52 19 -68 19 -38 0 -51 23 -51 87 0 101 -56 338 -88 376 -24 27 9 57 63
57 32 0 44 5 49 18 3 9 10 24 15 32 31 48 39 80 28 110 -10 25 -8 36 7 65 18
33 18 37 2 78 -23 60 -54 87 -123 104 -86 22 -94 22 -142 13z"/>
<path d="M3799 2515 c-3 -2 -34 -9 -70 -14 -74 -10 -154 -57 -170 -98 -15 -40
-11 -140 5 -146 8 -3 18 -23 21 -44 4 -21 14 -56 23 -77 l16 -39 -37 -32 c-21
-18 -57 -38 -81 -44 -53 -13 -64 -34 -77 -150 -9 -72 -14 -345 -10 -456 1 -16
-1 -77 -3 -135 -5 -104 13 -242 35 -265 5 -5 9 -28 9 -51 0 -24 5 -55 11 -71
24 -61 29 -144 12 -212 -20 -86 -12 -247 17 -354 18 -70 20 -87 10 -158 -6
-44 -8 -84 -4 -90 4 -7 21 -9 43 -5 120 19 123 19 133 2 9 -16 25 -17 171 -10
89 4 172 10 185 15 29 11 28 29 -1 29 -13 0 -61 13 -107 29 -114 40 -115 42
-100 291 5 102 15 212 20 245 5 33 11 98 15 145 3 47 12 107 20 134 19 62 19
110 0 181 -10 42 -11 62 -3 79 8 18 6 36 -6 73 -14 42 -15 72 -6 237 5 104 11
191 13 193 2 2 24 -15 48 -37 24 -22 61 -52 82 -67 36 -25 41 -26 65 -12 32
18 102 146 138 251 14 43 30 81 36 84 5 4 16 22 24 41 8 18 26 39 39 45 32 14
32 32 1 24 -35 -9 -41 9 -11 32 34 27 32 36 -7 28 -29 -6 -30 -5 -16 11 24 29
29 41 18 48 -6 4 -27 -11 -47 -32 l-35 -38 6 50 7 50 -21 -25 c-11 -14 -26
-32 -32 -40 -8 -8 -13 -45 -14 -90 -1 -63 -6 -85 -32 -135 -17 -33 -44 -76
-61 -95 l-30 -35 -28 34 c-15 19 -44 66 -63 104 -34 68 -37 72 -90 89 -30 10
-59 23 -64 28 -6 6 -5 29 3 64 9 41 20 61 40 76 16 11 34 33 41 50 13 31 30
40 30 17 0 -18 39 -53 68 -62 16 -4 22 -2 22 8 0 9 6 17 12 19 14 5 13 62 -2
93 -5 11 -19 49 -31 85 -28 86 -33 95 -73 119 -30 19 -95 29 -107 16z m-115
-1767 c4 -51 2 -128 -4 -171 -6 -50 -6 -103 0 -145 16 -115 22 -256 11 -271
-8 -12 -13 -12 -34 2 -41 26 -51 101 -42 310 4 116 12 191 21 213 8 18 14 49
14 67 0 47 11 98 20 92 4 -2 10 -46 14 -97z"/>
<path d="M10143 2474 c-24 -14 -43 -31 -43 -38 0 -7 -5 -17 -12 -24 -6 -6 -13
-19 -14 -28 -4 -25 -26 -74 -33 -74 -3 0 -6 -20 -6 -45 0 -29 4 -45 13 -45 14
0 15 -9 2 -30 -13 -21 7 -42 30 -30 9 5 20 7 23 3 4 -3 12 -1 19 4 29 23 58
21 103 -8 25 -16 48 -35 51 -43 12 -30 -53 -136 -83 -136 -7 0 -13 -8 -13 -18
0 -11 -11 -24 -24 -30 -39 -17 -45 -73 -13 -115 23 -30 24 -36 15 -97 -15
-100 -4 -274 20 -313 17 -30 18 -35 4 -65 -12 -25 -13 -39 -4 -69 6 -21 14
-60 17 -88 4 -27 19 -90 34 -140 18 -58 27 -103 24 -127 -3 -20 2 -61 11 -91
22 -74 20 -132 -5 -203 -18 -51 -20 -74 -16 -179 3 -66 11 -152 17 -190 11
-64 10 -77 -9 -140 -21 -66 -21 -70 -4 -83 12 -9 35 -11 74 -6 44 5 62 3 82
-11 23 -15 49 -17 190 -14 120 3 168 8 180 18 24 19 21 31 -8 31 -21 0 -127
36 -175 60 -8 4 -21 25 -28 46 -11 33 -11 68 3 219 10 99 24 203 33 230 9 30
16 92 17 155 3 229 3 225 30 240 37 20 34 79 -7 156 -32 58 -33 61 -39 234 -8
197 -25 298 -68 384 -23 47 -27 63 -18 77 14 22 -19 89 -44 89 -20 0 -69 44
-69 62 0 29 19 41 66 42 42 1 49 5 65 31 10 17 18 39 18 51 1 11 6 25 13 32 9
9 9 18 -1 38 -9 20 -9 40 -1 80 13 62 7 115 -18 159 -17 28 -23 31 -96 38 -46
4 -92 4 -113 -2 -22 -6 -42 -7 -53 -1 -10 5 -20 7 -22 4 -3 -2 -11 2 -18 11
-18 22 -49 18 -97 -11z m278 -1907 c-13 -13 -15 1 -4 30 7 17 8 17 11 -1 2
-10 -1 -23 -7 -29z m-4 -54 c-3 -10 -5 -4 -5 12 0 17 2 24 5 18 2 -7 2 -21 0
-30z m2 -263 c1 -99 -2 -122 -11 -112 -16 16 -23 159 -12 261 l8 76 7 -50 c4
-27 8 -106 8 -175z"/>
</g>
</svg>
